<?xml version="1.0" encoding="utf-8"?>
<!-- Generator: Adobe Illustrator 21.1.0, SVG Export Plug-In . SVG Version: 6.00 Build 0)  -->
<svg version="1.1" id="Слой_1" xmlns="http://www.w3.org/2000/svg" xmlns:xlink="http://www.w3.org/1999/xlink" x="0px" y="0px"
	 viewBox="0 0 735 735" style="enable-background:new 0 0 735 735;" xml:space="preserve">
<style type="text/css">
	.st0{fill:#8CC63F;}
	.st1{fill:#FF0000;}
	.st2{fill:none;stroke:#000000;stroke-width:6;stroke-miterlimit:10;}
</style>
<rect x="182.6" y="507.8" transform="matrix(0.9491 -0.315 0.315 0.9491 -156.0896 138.3714)" class="st0" width="334.9" height="88.7"/>
<circle class="st1" cx="467.4" cy="189" r="101.6"/>
<path class="st2" d="M560.1,224.6c-0.5,5.3-2.4,8.8-3.6,10.7c-3.8,5.9-9.5,8.5-14.3,10.7c-3.6,1.6-4.1,1.3-10.7,3.6
	c-2.5,0.8-10.1,3.4-17.8,7.1c-4.2,2-10.8,5.2-17.8,10.7c-6.1,4.7-8,7.6-17.8,17.8c-8.9,9.3-12.7,9.2-14.3,14.3
	c-2.5,8.1,2.5,16.1,3.6,17.8c6.4,10.2,18.9,14.5,28.5,14.3c8.5-0.2,8.3-3.7,17.8-3.6c7.9,0.1,31.4,3.9,35.7,3.6
	c11-0.8,13.4-2.7,14.3-3.6c3.9-3.8,3.6-9.6,3.6-10.7c-0.4-8.6-14.3-17.8-14.3-17.8c-15-10-26.3-19.7-35.7-25
	c-17.9-10-27.2-15.1-39.2-14.3c-12.1,0.8-20.5,6.8-35.7,17.8c-18.4,13.4-21.5,20.1-32.1,28.5c-21.8,17.3-46.9,19.2-74.9,21.4
	c-40.6,3.2-74.9,0-74.9,0c-8.6-0.8-19.9-2.1-32.1,3.6c-15.1,7.1-22.7,20.8-25,25c-2.2,4.1-6.8,12.9-7.1,25c-0.2,8,2.2,14.9,7.1,28.5
	c5.9,16.4,47.9,38.2,64.2,46.4c21.9,11,22.2,9.7,28.5,14.3c14.8,10.6,20.3,22.6,21.4,25c3.5,7.7,6.6,19.7,3.6,21.4
	c-3.9,2.2-17.2-13.6-25-25c-6.2-9.2-18.7-27.5-21.4-53.5c-1.8-16.7,2.4-18.5,0-42.8c-1.7-17.2-4.7-25.5-10.7-32.1
	c-1.9-2.2-8.1-8.8-17.8-10.7c-14.9-3-27.6,7.1-32.1,10.7c-15.7,12.5-20.2,29.9-28.5,64.2c-17.6,72.6-20.4,84.7-17.8,85.6
	c3.4,1.2,8.9-19.9,28.5-42.8c22.4-26.1,48.8-37.7,60.6-42.8c14.5-6.2,56.5-21.9,107-10.7c21.4,4.7,48,10.6,60.6,32.1
	c15.6,26.6-0.3,59.6,3.6,60.6c5,1.4,22.1-54.7,32.1-92.7c2.8-10.6,8.5-33.3,3.6-60.6c-4.1-22.7-11.6-27.2-14.3-28.5
	c-11.7-5.7-26.2,3.4-32.1,7.1c-5.6,3.5-21.4,13.4-21.4,28.5c0,9.5,6.2,16.4,10.7,21.4c2.5,2.8,13.9,15,39.2,21.4
	c26.8,6.8,39.7-0.4,49.9,10.7c5.8,6.3,6.7,14.1,7.1,17.8c2.6,22.1-15.9,37.7-17.8,39.2"/>
</svg>
