<?xml version="1.0" encoding="utf-8"?>
<!-- Generator: Adobe Illustrator 21.1.0, SVG Export Plug-In . SVG Version: 6.00 Build 0)  -->
<svg version="1.1" xmlns="http://www.w3.org/2000/svg" xmlns:xlink="http://www.w3.org/1999/xlink" x="0px" y="0px"
	 viewBox="0 0 735 735" style="enable-background:new 0 0 735 735;" xml:space="preserve">
<style type="text/css">
	.st0{display:none;}
	.st1{display:inline;fill:#8CC63F;}
	.st2{display:inline;fill:#FF0000;}
	.st3{display:inline;fill:#29ABE2;}
	.st4{display:inline;fill:#FCEE21;}
	.st5{display:inline;fill:#FFFF00;}
	.st6{display:inline;fill:#C7B299;}
	.st7{display:inline;fill:none;stroke:#000000;stroke-width:2;stroke-miterlimit:10;}
	.st8{display:inline;fill:none;stroke:#000000;stroke-width:6;stroke-miterlimit:10;}
	.st9{fill:#FCEE21;}
	.st10{fill:#FFFF00;}
	.st11{fill:none;stroke:#000000;stroke-width:6;stroke-miterlimit:10;}
</style>
<g id="Слой_4" class="st0">
	
		<rect x="929.3" y="426.3" transform="matrix(0.9491 -0.315 0.315 0.9491 -92.3042 368.2208)" class="st1" width="327.6" height="86.8"/>
	<circle class="st2" cx="1207.9" cy="114.4" r="99.4"/>
	<circle class="st3" cx="1846.3" cy="163.3" r="116.9"/>
	
		<rect x="1652.7" y="531.3" transform="matrix(0.9443 0.3291 -0.3291 0.9443 351.5463 -540.0555)" class="st4" width="237.2" height="474.5"/>
	<path class="st4" d="M2341.7,184.2l136.9-80.3c14.3,24.4,21.8,52.1,21.8,80.3c0,87.1-71.7,158.7-158.7,158.7
		c-55.8,0-107.6-29.4-136.3-77.3L2341.7,184.2z"/>
	<path class="st5" d="M2278.9,170.3l100-123.3c21.9,17.8,38.7,41.1,48.7,67.6c30.6,81.5-11.4,173.8-92.9,204.4
		c-52.2,19.6-111.1,10.3-154.7-24.5L2278.9,170.3z"/>
	
		<rect x="2115" y="644.7" transform="matrix(0.7416 0.6709 -0.6709 0.7416 1073.5116 -1369.1029)" class="st6" width="397.8" height="128.3"/>
	
		<ellipse transform="matrix(0.9598 -0.2806 0.2806 0.9598 -284.1458 371.1384)" class="st3" cx="1154" cy="1177.8" rx="233.6" ry="107.2"/>
	<rect x="2109.7" y="1044.2" class="st1" width="369.8" height="265.2"/>
	<path class="st7" d="M2143.5,364.8c-4.6-4.7-38.9-40.9-33-74.3c2.3-12.9,12.5-36.6,16.5-44c4.2-7.7,8-14.2,11-19.3
		c-3.3-14-14.7-22.9-24.8-22c-16.4,1.4-24.2,28.3-19.3,33c4.5,4.4,24.8-4.8,24.8-13.8c0-4.5-5.3-8.1-5.5-8.3c-6-4-10.6,0.1-16.5-2.8
		c-6.8-3.3-12.1-14-8.3-22c2.8-5.9,9.4-7.8,11-8.3c22.9,2.9,27.5,3.1,27.5,2.8c0.1-0.5-9.6-1-11-5.5c-1.1-3.6,3.1-9.9,8.3-11
		c6.6-1.5,9.4,6.5,22,11c5.4,1.9,4.3-12.3-2.8-16.5c-9.8-5.9-20.4-14.4-19.3-16.5c2.9,10.7,17.2,5.3,27.5,2.8
		c9.4-2.3,59.3,17.5,67.6,27.7c0.8,0.9,1.2,1.8,1.2,2.6c-0.1,26.3,19.2,45.6,2.8,30.3c-1.4,3-5.1,11.6-2.8,22
		c3.8,17.3,20.5,24.2,22,24.8c-14.5-2.2-31.7-1.9-44,8.3c-17.7,14.7-18.7,44.6-22,44c-2.5-0.4-0.8-16.2-2.8-16.5
		c-2.7-0.4-17.3,27.3-13.8,57.8c4.2,35.7,30,48,27.5,79.8c-0.3,4-1.6,20.6-11,24.8c-3.6,1.6-6.5,0.5-11,2.8c-6.2,3-9.3,9.2-11,13.8
		c7.4,2.4,19.2,5,33,2.8c4.1-0.7,7.8-1.6,11-2.8c0.6-4.8,2-11.7,5.5-19.3c3.5-7.5,7.8-13,11-16.5c-13.5-34.8-11-54.4-5.5-66
		c1.8-3.8,6.1-11.6,5.5-22c-0.8-14-10.6-25-11-24.8c-0.6,0.3,10.3,34,33,44c17.8,7.9,32.5-17.4,57.8-11c7.9,2,13.1,5.8,16.5,8.3
		c17.9,13,37.1,43.6,24.8,71.5c-16.5,37.3-73.9,35-77,27.5c-2.7-6.4,29.9-26.2,49.5-35.8c6.3-3.1,35.8-17.1,77-19.3
		c22-1.1,37.2-1.7,44,8.3c6.9,10.2,1.8,27.9-5.5,38.5c-8.8,12.9-20.2,14.6-19.3,19.3c1.2,6.2,23,12.2,38.5,2.8
		c12-7.3,14.5-21.7,16.5-33c3.7-20.2-0.9-37.9-5.5-49.5c-6-0.4-16.5-1.9-27.5-8.3c-13.5-7.9-15.8-17.5-27.5-33
		c-6.1-8-23.1-30.1-49.5-41.3c-12.5-5.3-37.1-12.4-44-2.8c-4.1,5.7-1.8,16.1,2.8,22c18.7,24.4,92.1-4.4,101.8-8.3
		c3.6-3.1,8.6-8.6,11-16.5c4.4-14.7-2.2-32-16.5-44c-14.3-7.6-25.6-8.6-33-8.3c-20.8,0.9-29.7,13.2-52.3,11
		c-5.8-0.6-15.7-1.5-19.3-8.3c-4-7.6,2-19.1,8.3-24.8c18-16.2,54.6-4.3,55,2.8c0.3,4.7-15.6,9.6-24.8,11
		c-12.4,1.9-22.4-0.9-27.5-2.8"/>
	<path class="st7" d="M1802.8,229.8c8.8,0.2,20.8-1,30.3-8.9c7.5-6.2,6.7-11,13.1-14.3c12.1-6.1,21.2,7.7,39.8,5.6
		c14.3-1.6,26.8-11.8,31.3-23.1c1-2.5,4.3-10.7,0.6-15.8c-3.7-5-11.1-2.9-22.4-5.5c-9.2-2.2-16.6-6.5-22.3-10.8
		c-3.6,0.1-54.4,1.7-75.1,39.5c-2.2,4.1-15.5,28.3-5.5,51.9c2,4.6,7,16.5,18.2,20.6c19.8,7.4,33.3-3.8,34.1,3.8
		c0.9,9.1,2,34-2.9,37.3c-4.9,3.3-36.7,5.6-40.6,3.3c-3.3-1.9-6.4-7.2-5-22.8c-19.7,10.8-44.5,5.3-57.5-12.6
		c-17.3-23.8-3.6-56,4.1-56.7c8.8-0.8,28.3,38.8,18,72.7c-7.1,23.4-26.4,34.5-50.8,51.4c-18,12.5-61.6,42.6-84.1,26.5
		c-19.6-14.1-21.8-62.2,1.7-76.8c12.1-7.5,31.2-6.2,40.9,3.5c13.8,13.8,9,44.7-2.7,61.5c-2.9,4.2-5.8,6.9-6.8,12.4
		c-2.3,13.2,10.8,18.8,11,31.4c0.3,17.9-25.6,31.2-28.5,32.7c-14.3,7.3-28,7.2-34.4,6.7c-2.5-4.5,7.1-21.5,10.2-36
		c1.9-8.7,0.8-22-5.5-24.4c-8.5-3.3-24,14.9-31.5,28.4c-5.1,9.1-27.3,51.6-46.1,67.3c-13.3,11.1-47.3,36-57.8,27.4
		c-10.3-8.4,5.8-46,19.8-68.3c17.5-27.8,39.8-44.8,55.1-54.4c-1-5.6-2.1-13.8-1.8-23.7c1.7-54.3,43.3-90.6,52.4-98.7
		c31.7-27.8,66.5-35.9,84-38.6c3.1-2,7.7-5,13-9c14-10.7,14.3-14.1,22.2-18.7c12.2-7,16.9-1.9,28.7-8.5
		c10.3-5.7,13.5-13.3,18.6-19.3c8.1-9.7,24.7-19.6,62.2-18.3"/>
	<path class="st7" d="M2336.5,1225.6c-20.7-2.7-24.4-5.3-24.4-7c-0.1-3.5,14.3-8.4,27.9-7c3.3,0.3,20.8,2.1,31.4,17.4
		c1.9,2.7,10.9,14.5,7,20.9c-2.9,4.8-12.4,3.5-31.4,0c-26.3-4.9-42.3-9.1-48.8-10.5c-34.3-7.3-81.3,4.9-108.2,31.4
		c-10.4,10.3-19.8,24.7-41.9,34.9c-9,4.2-20.8,3.8-20.9,7c-0.1,3,10.1,4.3,24.4,14c6.9,4.7,10.6,7.2,10.5,10.5
		c-0.3,6.5-15.1,5.9-24.4,17.4c-7.9,9.8-9.8,26.1-3.5,31.4c6,5,18.4-0.7,24.4-3.5c17.3-8,19.4-17.9,31.4-24.4
		c12.4-6.7,21.6-2.2,45.4,0c21.4,2,51.9,4.9,80.2-7c10.1-4.2,38.1-15.9,48.8-41.9c6.3-15.3,2.8-26.3,14-38.4
		c10.4-11.3,24.4-13.5,27.9-14c25.7-3.6,43.2,15.1,45.4,17.4c1.3,1.4,15,16.6,10.5,24.4c-3.1,5.3-12.7,4.1-34.9,3.5
		c-26.9-0.7-39.2-5-41.9,0c-1.5,2.8,1.2,5.7,7,17.4c0,0,6.2,12.6,10.5,24.4c7.7,21.4-1.1,44.1-7,59.3c-5.6,14.6-8.2,23.7-17.4,31.4
		c-7.9,6.6-19.9,14.1-24.4,10.5c-2.7-2.2-1.4-7.2,3.5-27.9c4.4-18.6,6.6-28,7-31.4c1.2-9.4,0.9-23.5-7-41.9"/>
	<path class="st7" d="M1722.5,1654.7c-20.5-22.4-27.3-49-17.4-66.3c10.6-18.6,37-20.4,45.4-20.9c69.6-4.7,124.8,84.8,132.6,97.7
		c-8.3-13.4-19.2-33.4-27.9-59.3c-19.3-57.5-19.3-120.3-3.5-125.6c8.2-2.8,28.7,7.4,34.9,10.5c5.1,2.5,9.8,5.3,14,3.5
		c5.6-2.5,6.7-11.7,7-17.4c-5.1-4-11.4-9.7-17.4-17.4c-8.3-10.7-6.6-18.9-14-24.4c-7.3-5.5-16.6-4.5-24.4-3.5
		c-22.8,2.8-39,15.2-41.9,17.4c-44.5,34.9-121.2,122.3-174.4,171c-11.8,10.8-30.7,27.2-55.8,45.4c16.6-19.7,27.7-38.3,34.9-52.3
		c6.7-13,18.5-36.5,24.4-69.8c2.4-13.7,6.3-24.6,3.5-38.4c-2.2-10.9-6.9-19.2-10.5-24.4c-15.8,5.5-40.2,11.1-66.3,3.5
		c-31.5-9.2-49.3-33.1-55.8-27.9c-5.2,4.1,1.5,22.8,10.5,34.9c9.6,12.9,22.1,18.7,27.9,20.9c27.4,10.5,54.3-1.2,73.3-7
		c57.5-17.5,111-1.2,160.5,14c0,0,27.1,8.3,97.7,55.8c3.6,2.4,11.5,7.9,14,17.4c3.4,13.6-6.5,26.7-10.5,31.4"/>
	<path class="st7" d="M1244.5,1134.9c-68.9,34.2-82.4,48.9-80.2,55.8c1.2,3.9,7.4,5.4,14,7c23.2,5.6,42.8-9.4,48.8-14
		c10.2-7.8,17.8-13.5,17.4-20.9c-0.8-18.5-49.9-29.3-59.3-31.4c-1.2-0.3-26.7-6.7-59.3-3.5c-16.1,1.6-20.3,4.1-20.9,7
		c-1.1,5.2,10.7,12.1,14,14c9.7,5.6,17.7,1.9,20.9,7c2.5,4,0.4,9.5,0,10.5c-4.9,12.7-25,12.1-55.8,20.9
		c-26.4,7.6-40.9,11.7-52.3,24.4c-14.2,15.8-8.4,28-20.9,41.9c-8.4,9.4-24.7,19-59.3,17.4c15.3-13.7,25.3-26.1,31.4-34.9
		c3.8-5.5,7-10.6,7-17.4c0-10.4-7.4-18.1-10.5-20.9c8.1,2.3,16.3,4.7,24.4,7c5.8-6.2,14.5-15.8,24.4-27.9
		c25.6-31.3,34.5-49.2,45.4-62.8c14-17.5,39.7-38.2,90.7-48.8c5.1-1.1,12.7-3.8,17.4-10.5c11.6-16.2-13.5-46.7-10.5-48.8
		c2.9-2,18.9,26.7,48.8,48.8c26.7,19.7,35.1,12.5,69.8,34.9c17.3,11.2,39.1,25.6,52.3,52.3c8.8,17.8,15,43.5,7,48.8
		c-7.1,4.6-22.8-7.9-34.9-17.4c-19.1-15.2-47.6-44-41.9-52.3c4.1-6,26.5-3,34.9,10.5c3.2,5.1,3.6,10.5,3.5,14
		c-1.6,0-24.9,0-34.9,17.4c-1.3,2.2-5.6,9.8-3.5,17.4c3.4,11.9,21.8,20.4,45.4,17.4"/>
	<path class="st7" d="M2360.9,1567.5c-0.6,4.9-0.9,14.3,3.5,24.4c6.1,14,17.5,20.4,24.4,24.4c4.1,2.3,31.9,18.2,48.8,7
		c5.1-3.4,4.4-6.1,14-20.9c8.2-12.8,11.2-14.6,20.9-27.9c14-19.1,26.4-40.4,24.4-41.9c-1.8-1.3-12,16.6-34.9,27.9
		c-9.4,4.6-23.9,11.8-38.4,7c-12.2-4-18.6-16.6-31.4-41.9c-14.1-27.8-12.2-37.2-10.5-41.9c2.5-6.7,8.8-15.2,14-14
		c4.2,1,6.8,8.4,7,14c0.4,16.2-19.8,25.2-38.4,41.9c-7.8,7-19.3,25.7-41.9,62.8c-12.1,19.9-27.7,45.9-45.4,76.8
		c3.5-19,6.6-48.7,0-83.7c-6.2-32.7-12.1-64.1-38.4-83.7c-35.5-26.5-96-22.3-125.6,10.5c-21,23.2-21,54.8-20.9,80.2
		c0,30.7,7.9,55.1,14,69.8c-1.1-5.2-9.3-45.3,14-66.3c3.6-3.3,8.2-7.4,14-7c21.6,1.7,38.5,67.2,27.9,73.3
		c-5.1,2.9-18.8-6.4-20.9-17.4c-2.3-11.8,8.5-26.4,27.9-34.9c37.9-3,69.8-3.7,94.2-3.5c33.2,0.2,49.5,1.9,59.3,14
		c9.7,11.9,8.6,28.5,7,38.4"/>
	<path class="st7" d="M1118.9,1665.2c-6.6-8.5-18.1-26.2-17.4-48.8c0.9-29.5,21.8-50,34.9-62.8c36-35.2,60.9-26.2,76.8-55.8
		c7.2-13.5,15.3-39.7,7-59.3c-1.3-3.2-5.3-11.1-10.5-24.4c-3.9-9.9-5.9-15-7-20.9c-0.7-3.9-5.1-26.7,3.5-31.4
		c3.4-1.9,6.3,0.8,24.4,7c13.1,4.4,17.3,5,17.4,7c0.2,3.6-18.5,0.3-27.9,10.5c-13.5,14.6-6,54.8,14,69.8
		c3.1,2.4,10.5,17.4,10.5,38.4c-3.5,15.8-5.3,23.8-10.5,31.4c-14.6,21.6-45.1,23.9-52.3,24.4c-30.2,2.3-57.7-10.6-87.2-24.4
		c-20.1-9.4-32.2-17.5-48.8-14c-16.1,3.4-26.4,15.5-27.9,14c-1.7-1.8,10.3-19.2,27.9-34.9c14.9-13.2,56.6-45.5,111.6-41.9
		c17.4,1.1,37.5,2.4,48.8,17.4c15,19.8,3.7,49.5,0,59.3c-12.8,33.7-41.4,50.3-52.3,55.8c3.6,0.7,9.8,2,17.4,3.5
		c32.3,6.4,36.7,7,41.9,10.5c5.1,3.4,14.4,12,17.4,34.9"/>
	<path class="st7" d="M958.5,927.3c5.1-0.7,9.5,1.8,10.6,5.3c1.4,4.5-3.4,9.3-7.9,10.6c-3.7,1.1-7.9,0.1-10.6-2.6
		c-3.2-3.3-2.9-7.8-2.6-10.6c0.4-4.6,2.4-8.4,3.7-10.6c0,0,0.7-1.3,1.6-2.6c35.4-52.4,68.8-68.8,68.8-68.8
		c30-13.5,75.4-20.1,87.3-2.6c6.7,9.8-1.4,21,5.3,50.3c2.3,10.1,5.5,18.3,7.9,23.8c-2.6,4.4-5.3,8.8-7.9,13.2
		c1.5,0.9,12.2,7.2,23.8,2.6c5.5-2.1,8.9-5.8,10.6-7.9c-3.2-14.5-6.3-38.3,0-66.1c2.9-12.8,14.4-64.3,63.5-92.6
		c51.2-29.4,104.8-10.3,119-5.3c24,8.5,21.8,18.6,50.3,29.1c30.7,11.3,57.7,10.6,63.5,26.5c2.3,6.3,0.4,12.2,0,13.2
		c-3.9,10.9-17.7,15.1-31.7,18.5c-39.6,9.7-59.5,14.5-82,10.6c-39-6.8-54.4-28.4-63.5-21.2c-14.5,11.4,19.7,69.1,0,87.3
		c-2.7,2.5-8.5,6.2-15.9,7.9c-8.8,2-20.1,1.1-21.2-2.6c-1-3.5,8.1-5.8,13.2-13.2c11.7-16.8,1.4-57.4-26.5-68.8
		c-1.1-0.4-21.8-8.7-29.1,0c-13.9,16.5,38.1,73.7,29.1,82c-4.2,3.8-21.5-2.6-29.1-15.9c-12.9-22.6,12.8-47,15.9-84.6
		c1.7-20.6-26.5-84.6-31.7-87.3c-5.3-2.6-28.8,3.8-45,7.9c-44.1,11.4-77.8,31.2-100.5,47.6c-4.6-4.3-11.1-3.3-13.2,0
		c-1.7,2.7-0.9,7.4,2.6,10.6c-6.9,7.2-14,15.1-21.2,23.8c-12.8,15.6-23.2,30.9-31.7,45c-4.4,7.9-8.8,15.9-13.2,23.8"/>
	<path class="st7" d="M1790.3,1307c6.1,3.7,13.6,3.5,18.2,0c0.5-0.4,4.7-3.6,4.5-8.3c-0.2-7.6-11.9-11.8-13.6-12.4
		c-7-2.4-11.5-1-22.7,0c-14.2,1.3-24.9,0.7-36.4,0c-14.6-0.8-21.9-1.3-27.3-4.1c-13.9-7.4-17.5-22.1-18.2-24.8
		c-3.5-14.5,2.8-26,4.5-29c2.2-3.8,7.3-11.9,18.2-16.5c14-5.9,27.5-1.6,31.8,0c14.6,5.5,20.7,16.9,22.7,20.7c4.1,8,4.4,15,4.5,20.7
		c0.2,7,0.5,16.1-4.5,24.8c-6.3,10.8-17.6,15.2-31.8,20.7c-7.9,3.1-20.3,6.9-36.4,8.3c-10.6-2.8-20.1-1-31.8-8.3
		c-13.1-9.7-18.8-13.8-27.3-29c-3.8-6.7-13.6-26.4-9.1-49.6c1.1-5.7,6.8-19,18.2-45.5c4.1-9.6,7.3-16.6,4.5-24.8
		c-2.5-7.5-9.8-16.3-18.2-16.5c-16.1-0.5-26.1,30.7-31.8,29c-4.5-1.4-2.7-22,4.5-41.4c6.2-16.7,12.6-33.9,31.8-45.5
		c23.8-14.3,50.3-9.8,59.1-8.3c12.9,2.2,32.9,5.3,45.4,20.7c15.8,19.3,12.8,49.2,0,66.2c-3.5,4.7-10.2,11.4-9.1,12.4
		c1.1,1,7.5-5.5,18.2-8.3c8.6-2.3,15.9-1.1,22.7,0c12.2,2,23.9,3.9,31.8,12.4c7.7,8.4,10.7,22.1,9.1,33.1c-0.8,5.4-2.6,9.2,0,12.4
		c2.3,2.8,6.1,2.9,18.2,4.1c19.8,2,21.5,3,22.7,4.1c3.6,3.3,3.9,9.1,4.5,20.7c0.6,11.2,0.5,12.3,0,12.4c-1.5,0.4-2.5-7.5-9.1-12.4
		c-6.1-4.6-12.5-3.1-27.3-4.1c-11.1-0.8-19.8-1.3-27.3-4.1c-17.5-6.5-24.6-23.1-27.3-29c-3.5-7.8-9.1-19.9-4.5-33.1
		c6.3-18,27.8-27.3,31.8-29c12.7-5.5,21.1-4.5,27.3-12.4c4.8-6.2,4.6-13.3,4.5-16.5c-0.4-14.8-11.7-30.2-18.2-29
		c-6.8,1.3-12.1,21.9-4.5,37.2c5.1,10.4,15.6,17.2,27.3,24.8c11.5,7.5,17.2,8.7,22.7,16.5c1.7,2.4,9.2,12.9,4.5,20.7
		c-3.4,5.6-11.4,7.1-18.2,8.3c-7.7,1.4-14.1,0.7-18.2,0"/>
	<path class="st7" d="M2390.6,721.5c10.5,12.8,11.2,29.1,3.5,38.4c-7,8.5-19.6,9.6-27.9,7c-24.7-7.8-30.3-56.6-24.4-59.3
		c3.5-1.6,14.3,11.1,17.4,24.4c0.8,3.4,1.9,8.3,0,14c-2.3,6.6-7.8,11.9-14,14c-12.5,4.2-25-7.7-27.9-10.5
		c-12.2-11.5-21.5-36.9-14.9-57.1c1.1-3.2,5.1-19.6,4.5-19.7c-1.1-0.2-6.3,17-7,31.4c-2.2,47,42.6,82.3,48.8,87.2
		c19.5,15.4,38.1,21.2,48.8,24.4c23,6.9,53.3,10.4,55.8,3.5c1.1-3-3.8-5.5-24.4-24.4c-17.9-16.5-23.1-22.7-27.9-20.9
		c-3.1,1.1-4.9,5.2-7,20.9c-3.6,27-1,33.1-3.5,45.4c-2,9.8-4.3,8.9-24.4,41.9c-14.1,23-21.1,34.7-24.4,45.4
		c-5.9,19.3-6.8,39.3-7,45.4c-0.3,10.5,0.3,20.9,0,20.9c-0.5,0,1.4-21.7-7-45.4c-3-8.4-8-22.6-20.9-34.9
		c-20.8-19.8-47.5-21-55.8-20.9c-29,0.1-49.2,16.2-59.3,24.4c-40,32.5-46.2,78.6-52.3,76.8c-4.7-1.4-6.8-30.1,7-52.3
		c6.7-10.7,13.6-14.5,14-24.4c0.4-11.8-9.1-15.8-10.5-27.9c-1.5-13.4,8.2-24.7,14-31.4c22.4-26.1,55.7-29,122.1-34.9
		c13.9-1.2,27.8-1.9,38.4,7c11.5,9.7,13.4,26.2,14,31.4c0.5,4.5,1.9,16.8-3.5,27.9c-4.8,9.9-14.6,18.3-62.8,31.4
		c-20.6,5.6-37.7,2.3-62.8,14c-3.2,1.5-5.7,2.6-7,3.5c-4.4,3-6.7,6.5-7,7c-3.7,5.9,11.7,26.6,38.4,48.8"/>
	<path class="st7" d="M1298.6,149.3c-0.5,5.2-2.3,8.6-3.5,10.5c-3.7,5.8-9.3,8.4-14,10.5c-3.5,1.6-4,1.3-10.5,3.5
		c-2.5,0.8-9.9,3.4-17.4,7c-4.1,2-10.5,5.1-17.4,10.5c-6,4.6-7.8,7.4-17.4,17.4c-8.7,9.1-12.4,9-14,14c-2.5,7.9,2.4,15.7,3.5,17.4
		c6.2,10,18.5,14.1,27.9,14c8.3-0.2,8.2-3.6,17.4-3.5c7.7,0.1,30.8,3.8,34.9,3.5c10.8-0.7,13.1-2.6,14-3.5c3.8-3.7,3.5-9.4,3.5-10.5
		c-0.4-8.4-14-17.4-14-17.4c-14.7-9.8-25.7-19.3-34.9-24.4c-17.6-9.8-26.6-14.7-38.4-14c-11.8,0.8-20,6.6-34.9,17.4
		c-18,13.1-21,19.7-31.4,27.9c-21.3,16.9-45.9,18.8-73.3,20.9c-39.7,3.1-73.3,0-73.3,0c-8.4-0.8-19.5-2.1-31.4,3.5
		c-14.8,6.9-22.2,20.4-24.4,24.4c-2.1,4-6.7,12.6-7,24.4c-0.2,7.8,2.2,14.6,7,27.9c5.8,16.1,46.8,37.3,62.8,45.4
		c21.4,10.8,21.7,9.5,27.9,14c14.4,10.4,19.9,22.1,20.9,24.4c3.4,7.6,6.4,19.3,3.5,20.9c-3.8,2.1-16.9-13.3-24.4-24.4
		c-6.1-9-18.3-26.9-20.9-52.3c-1.7-16.4,2.4-18.1,0-41.9c-1.7-16.8-4.6-24.9-10.5-31.4c-1.9-2.1-7.9-8.6-17.4-10.5
		c-14.6-2.9-27,7-31.4,10.5c-15.4,12.2-19.8,29.2-27.9,62.8c-17.3,71-20,82.9-17.4,83.7c3.4,1.1,8.7-19.5,27.9-41.9
		c21.9-25.5,47.7-36.9,59.3-41.9c14.2-6.1,55.2-21.4,104.7-10.5c20.9,4.6,46.9,10.4,59.3,31.4c15.3,26-0.3,58.3,3.5,59.3
		c4.9,1.3,21.6-53.5,31.4-90.7c2.7-10.3,8.3-32.5,3.5-59.3c-4-22.2-11.4-26.7-14-27.9c-11.4-5.6-25.6,3.3-31.4,7
		c-5.4,3.4-20.9,13.1-20.9,27.9c0,9.3,6,16,10.5,20.9c2.4,2.7,13.6,14.7,38.4,20.9c26.2,6.7,38.9-0.4,48.8,10.5
		c5.7,6.1,6.6,13.8,7,17.4c2.5,21.6-15.6,36.9-17.4,38.4"/>
	<path class="st7" d="M1926.6,850.6c12-6.5,14.3-11,14-14c-1-7.8-20.8-7.7-55.8-20.9c-7.8-3-24.9-9.8-41.9-24.4
		c-13-11.2-14.4-17-14-20.9c1-9,12.1-14.7,17.4-17.4c10.7-5.5,15.4-3.3,27.9-7c1.7-0.5,17.8-5.3,31.4-17.4
		c16.9-15,20-32.4,24.4-31.4c3.4,0.8,0.4,12.9,3.5,24.4c6.8,25.2,46.5,27.6,45.4,38.4c-0.3,2.8-3,4.5-7,7
		c-16.8,10.4-35.4,3.7-45.4,3.5c-44.5-0.8-85.1,117.5-90.7,115.1c-2.7-1.1,10.9-26.8,0-45.4c-7.2-12.2-21.8-15.9-27.9-17.4
		c-52.2-13.2-115.4,66-118.6,62.8c-2.5-2.5,45.9-39.5,38.4-69.8c-5.4-21.8-37.9-32.2-55.8-34.9c-65.9-9.8-131.3,53.5-125.6,66.3
		c1,2.3,4.5,3,10.5,3.5c86.8,6.7,143-45.4,143-45.4c13.1-12.1,26.3-28.1,48.8-31.4c14.3-2.1,22.4,2.3,24.4,3.5
		c16.9,9.9,17.4,32.6,17.4,34.9c0.1,15.4-11.3,32.6-24.4,41.9c-3.3,2.3-6.1,3.7-7,7c-2.2,8.5,11.7,19.6,24.4,27.9"/>
</g>
<g id="Слой_1" class="st0">
	
		<rect x="182.6" y="507.8" transform="matrix(0.9491 -0.315 0.315 0.9491 -156.0896 138.3714)" class="st1" width="334.9" height="88.7"/>
	<circle class="st2" cx="467.4" cy="189" r="101.6"/>
	<path class="st8" d="M560.1,224.6c-0.5,5.3-2.4,8.8-3.6,10.7c-3.8,5.9-9.5,8.5-14.3,10.7c-3.6,1.6-4.1,1.3-10.7,3.6
		c-2.5,0.8-10.1,3.4-17.8,7.1c-4.2,2-10.8,5.2-17.8,10.7c-6.1,4.7-8,7.6-17.8,17.8c-8.9,9.3-12.7,9.2-14.3,14.3
		c-2.5,8.1,2.5,16.1,3.6,17.8c6.4,10.2,18.9,14.5,28.5,14.3c8.5-0.2,8.3-3.7,17.8-3.6c7.9,0.1,31.4,3.9,35.7,3.6
		c11-0.8,13.4-2.7,14.3-3.6c3.9-3.8,3.6-9.6,3.6-10.7c-0.4-8.6-14.3-17.8-14.3-17.8c-15-10-26.3-19.7-35.7-25
		c-17.9-10-27.2-15.1-39.2-14.3c-12.1,0.8-20.5,6.8-35.7,17.8c-18.4,13.4-21.5,20.1-32.1,28.5c-21.8,17.3-46.9,19.2-74.9,21.4
		c-40.6,3.2-74.9,0-74.9,0c-8.6-0.8-19.9-2.1-32.1,3.6c-15.1,7.1-22.7,20.8-25,25c-2.2,4.1-6.8,12.9-7.1,25
		c-0.2,8,2.2,14.9,7.1,28.5c5.9,16.4,47.9,38.2,64.2,46.4c21.9,11,22.2,9.7,28.5,14.3c14.8,10.6,20.3,22.6,21.4,25
		c3.5,7.7,6.6,19.7,3.6,21.4c-3.9,2.2-17.2-13.6-25-25c-6.2-9.2-18.7-27.5-21.4-53.5c-1.8-16.7,2.4-18.5,0-42.8
		c-1.7-17.2-4.7-25.5-10.7-32.1c-1.9-2.2-8.1-8.8-17.8-10.7c-14.9-3-27.6,7.1-32.1,10.7c-15.7,12.5-20.2,29.9-28.5,64.2
		c-17.6,72.6-20.4,84.7-17.8,85.6c3.4,1.2,8.9-19.9,28.5-42.8c22.4-26.1,48.8-37.7,60.6-42.8c14.5-6.2,56.5-21.9,107-10.7
		c21.4,4.7,48,10.6,60.6,32.1c15.6,26.6-0.3,59.6,3.6,60.6c5,1.4,22.1-54.7,32.1-92.7c2.8-10.6,8.5-33.3,3.6-60.6
		c-4.1-22.7-11.6-27.2-14.3-28.5c-11.7-5.7-26.2,3.4-32.1,7.1c-5.6,3.5-21.4,13.4-21.4,28.5c0,9.5,6.2,16.4,10.7,21.4
		c2.5,2.8,13.9,15,39.2,21.4c26.8,6.8,39.7-0.4,49.9,10.7c5.8,6.3,6.7,14.1,7.1,17.8c2.6,22.1-15.9,37.7-17.8,39.2"/>
</g>
<g id="Слой_2" class="st0">
	<circle class="st3" cx="516.1" cy="258" r="112"/>
	<path class="st8" d="M474.3,321.8c8.4,0.2,20-1,29.1-8.6c7.2-6,6.4-10.6,12.6-13.7c11.6-5.8,20.3,7.4,38.1,5.4
		c13.7-1.5,25.7-11.3,30-22.1c0.9-2.4,4.1-10.2,0.5-15.1c-3.5-4.8-10.7-2.8-21.5-5.3c-8.8-2.1-15.9-6.2-21.3-10.3
		c-3.4,0.1-52.1,1.7-72,37.8c-2.1,3.9-14.9,27.1-5.3,49.8c1.9,4.4,6.7,15.8,17.5,19.8c19,7.1,32-3.6,32.7,3.7
		c0.8,8.7,1.9,32.6-2.8,35.7c-4.7,3.1-35.2,5.3-39,3.2c-3.2-1.8-6.2-6.9-4.8-21.9c-18.9,10.4-42.7,5-55.1-12
		c-16.6-22.8-3.4-53.7,3.9-54.3c8.5-0.8,27.2,37.2,17.2,69.7c-6.9,22.4-25.3,33-48.6,49.2c-17.3,12-59,40.9-80.6,25.4
		c-18.8-13.5-20.9-59.6,1.6-73.6c11.6-7.2,29.9-5.9,39.2,3.4c13.2,13.2,8.6,42.9-2.6,58.9c-2.8,4-5.6,6.6-6.5,11.9
		c-2.2,12.7,10.4,18,10.5,30.1c0.3,17.2-24.5,29.9-27.3,31.3c-13.7,7-26.8,6.9-33,6.4c-2.4-4.3,6.8-20.6,9.8-34.5
		c1.8-8.4,0.7-21.1-5.2-23.4c-8.2-3.2-23,14.3-30.2,27.2c-4.9,8.8-26.2,49.5-44.1,64.5c-12.8,10.7-45.4,34.5-55.4,26.3
		c-9.9-8.1,5.5-44,19-65.4c16.7-26.7,38.1-42.9,52.8-52.1c-1-5.3-2-13.2-1.7-22.8c1.7-52,41.5-86.9,50.2-94.6
		c30.4-26.6,63.8-34.4,80.5-37c3-1.9,7.4-4.8,12.4-8.6c13.4-10.3,13.7-13.5,21.3-17.9c11.7-6.7,16.2-1.9,27.5-8.1
		c9.9-5.5,13-12.8,17.8-18.5c7.8-9.3,23.7-18.7,59.6-17.6"/>
</g>
<g id="Слой_3" class="st0">
	
		<rect x="264.7" y="144.9" transform="matrix(0.9443 0.3291 -0.3291 0.9443 141.9745 -103.3033)" class="st4" width="222.9" height="445.9"/>
	<path class="st8" d="M522.1,444.8c11.3-6.1,13.5-10.3,13.1-13.1c-0.9-7.3-19.5-7.2-52.5-19.7c-7.3-2.8-23.4-9.2-39.3-22.9
		c-12.2-10.5-13.5-15.9-13.1-19.7c0.9-8.5,11.4-13.8,16.4-16.4c10.1-5.2,14.5-3.1,26.2-6.6c1.6-0.5,16.7-5,29.5-16.4
		c15.9-14.1,18.8-30.5,22.9-29.5c3.2,0.7,0.3,12.1,3.3,22.9c6.4,23.7,43.7,25.9,42.6,36.1c-0.3,2.7-2.9,4.3-6.6,6.6
		c-15.8,9.8-33.3,3.4-42.6,3.3c-41.8-0.8-79.9,110.4-85.2,108.2c-2.6-1.1,10.2-25.2,0-42.6c-6.8-11.5-20.5-14.9-26.2-16.4
		c-49-12.4-108.5,62-111.5,59c-2.3-2.4,43.2-37.1,36.1-65.6c-5.1-20.5-35.6-30.3-52.5-32.8c-61.9-9.2-123.4,50.3-118,62.3
		c1,2.2,4.2,2.8,9.8,3.3c81.5,6.3,134.4-42.6,134.4-42.6c12.3-11.4,24.7-26.4,45.9-29.5c13.4-2,21,2.1,22.9,3.3
		c15.8,9.3,16.4,30.7,16.4,32.8c0.1,14.4-10.6,30.6-22.9,39.3c-3.1,2.2-5.8,3.5-6.6,6.6c-2.1,8,11,18.4,22.9,26.2"/>
</g>
<g id="Слой_5" class="st0">
	
		<rect x="186" y="251.7" transform="matrix(0.7416 0.6709 -0.6709 0.7416 311.3712 -176.5655)" class="st6" width="397.8" height="128.3"/>
	<path class="st8" d="M461.6,328.5c10.5,12.8,11.2,29.1,3.5,38.4c-7,8.5-19.6,9.6-27.9,7c-24.7-7.8-30.3-56.6-24.4-59.3
		c3.5-1.6,14.3,11.1,17.4,24.4c0.8,3.4,1.9,8.3,0,14c-2.3,6.6-7.8,11.9-14,14c-12.5,4.2-25-7.7-27.9-10.5
		c-12.2-11.5-21.5-36.9-14.9-57.1c1.1-3.2,5.1-19.6,4.5-19.7c-1.1-0.2-6.3,17-7,31.4c-2.2,47,42.6,82.3,48.8,87.2
		c19.5,15.4,38.1,21.2,48.8,24.4c23,6.9,53.3,10.4,55.8,3.5c1.1-3-3.8-5.5-24.4-24.4c-17.9-16.5-23.1-22.7-27.9-20.9
		c-3.1,1.1-4.9,5.2-7,20.9c-3.6,27-1,33.1-3.5,45.4c-2,9.8-4.3,8.9-24.4,41.9c-14.1,23-21.1,34.7-24.4,45.4
		c-5.9,19.3-6.8,39.3-7,45.4c-0.3,10.5,0.3,20.9,0,20.9c-0.5,0,1.4-21.7-7-45.4c-3-8.4-8-22.6-20.9-34.9
		c-20.8-19.8-47.5-21-55.8-20.9c-29,0.1-49.2,16.2-59.3,24.4c-40,32.5-46.2,78.6-52.3,76.8c-4.7-1.4-6.8-30.1,7-52.3
		c6.7-10.7,13.6-14.5,14-24.4c0.4-11.8-9.1-15.8-10.5-27.9c-1.5-13.4,8.2-24.7,14-31.4c22.4-26.1,55.7-29,122.1-34.9
		c13.9-1.2,27.8-1.9,38.4,7c11.5,9.7,13.4,26.2,14,31.4c0.5,4.5,1.9,16.8-3.5,27.9c-4.8,9.9-14.6,18.3-62.8,31.4
		c-20.6,5.6-37.7,2.3-62.8,14c-3.2,1.5-5.7,2.6-7,3.5c-4.4,3-6.7,6.5-7,7c-3.7,5.9,11.7,26.6,38.4,48.8"/>
</g>
<g id="Слой_6" class="st0">
	<rect x="182.7" y="133" class="st1" width="369.8" height="369.5"/>
	<path class="st8" d="M409.5,418.7c-20.7-2.7-24.4-5.3-24.4-7c-0.1-3.5,14.3-8.4,27.9-7c3.3,0.3,20.8,2.1,31.4,17.4
		c1.9,2.7,10.9,14.5,7,20.9c-2.9,4.8-12.4,3.5-31.4,0c-26.3-4.9-42.3-9.1-48.8-10.5c-34.3-7.3-81.3,4.9-108.2,31.4
		c-10.4,10.3-19.8,24.7-41.9,34.9c-9,4.2-20.8,3.8-20.9,7c-0.1,3,10.1,4.3,24.4,14c6.9,4.7,10.6,7.2,10.5,10.5
		c-0.3,6.5-15.1,5.9-24.4,17.4c-7.9,9.8-9.8,26.1-3.5,31.4c6,5,18.4-0.7,24.4-3.5c17.3-8,19.4-17.9,31.4-24.4
		c12.4-6.7,21.6-2.2,45.4,0c21.4,2,51.9,4.9,80.2-7c10.1-4.2,38.1-15.9,48.8-41.9c6.3-15.3,2.8-26.3,14-38.4
		c10.4-11.3,24.4-13.5,27.9-14c25.7-3.6,43.2,15.1,45.4,17.4c1.3,1.4,15,16.6,10.5,24.4c-3.1,5.3-12.7,4.1-34.9,3.5
		c-26.9-0.7-39.2-5-41.9,0c-1.5,2.8,1.2,5.7,7,17.4c0,0,6.2,12.6,10.5,24.4c7.7,21.4-1.1,44.1-7,59.3c-5.6,14.6-8.2,23.7-17.4,31.4
		c-7.9,6.6-19.9,14.1-24.4,10.5c-2.7-2.2-1.4-7.2,3.5-27.9c4.4-18.6,6.6-28,7-31.4c1.2-9.4,0.9-23.5-7-41.9"/>
</g>
<g id="Слой_7">
	<path class="st9" d="M415.7,281.2l136.9-80.3c14.3,24.4,21.8,52.1,21.8,80.3c0,87.1-71.7,158.7-158.7,158.7
		c-55.8,0-107.6-29.4-136.3-77.3L415.7,281.2z"/>
	<path class="st10" d="M352.9,267.3l100-123.3c21.9,17.8,38.7,41.1,48.7,67.6c30.6,81.5-11.4,173.8-92.9,204.4
		c-52.2,19.6-111.1,10.3-154.7-24.5L352.9,267.3z"/>
	<path class="st11" d="M217.5,461.8c-4.6-4.7-38.9-40.9-33-74.3c2.3-12.9,12.5-36.6,16.5-44c4.2-7.7,8-14.2,11-19.3
		c-3.3-14-14.7-22.9-24.8-22c-16.4,1.4-24.2,28.3-19.3,33c4.5,4.4,24.8-4.8,24.8-13.8c0-4.5-5.3-8.1-5.5-8.3c-6-4-10.6,0.1-16.5-2.8
		c-6.8-3.3-12.1-14-8.3-22c2.8-5.9,9.4-7.8,11-8.3c22.9,2.9,27.5,3.1,27.5,2.8c0.1-0.5-9.6-1-11-5.5c-1.1-3.6,3.1-9.9,8.3-11
		c6.6-1.5,9.4,6.5,22,11c5.4,1.9,4.3-12.3-2.8-16.5c-9.8-5.9-20.4-14.4-19.3-16.5c2.9,10.7,17.2,5.3,27.5,2.8
		c9.4-2.3,59.3,17.5,67.6,27.7c0.8,0.9,1.2,1.8,1.2,2.6c-0.1,26.3,19.2,45.6,2.8,30.3c-1.4,3-5.1,11.6-2.8,22
		c3.8,17.3,20.5,24.2,22,24.8c-14.5-2.2-31.7-1.9-44,8.3c-17.7,14.7-18.7,44.6-22,44c-2.5-0.4-0.8-16.2-2.8-16.5
		c-2.7-0.4-17.3,27.3-13.8,57.8c4.2,35.7,30,48,27.5,79.8c-0.3,4-1.6,20.6-11,24.8c-3.6,1.6-6.5,0.5-11,2.8c-6.2,3-9.3,9.2-11,13.8
		c7.4,2.4,19.2,5,33,2.8c4.1-0.7,7.8-1.6,11-2.8c0.6-4.8,2-11.7,5.5-19.3c3.5-7.5,7.8-13,11-16.5c-13.5-34.8-11-54.4-5.5-66
		c1.8-3.8,6.1-11.6,5.5-22c-0.8-14-10.6-25-11-24.8c-0.6,0.3,10.3,34,33,44c17.8,7.9,32.5-17.4,57.8-11c7.9,2,13.1,5.8,16.5,8.3
		c17.9,13,37.1,43.6,24.8,71.5c-16.5,37.3-73.9,35-77,27.5c-2.7-6.4,29.9-26.2,49.5-35.8c6.3-3.1,35.8-17.1,77-19.3
		c22-1.1,37.2-1.7,44,8.3c6.9,10.2,1.8,27.9-5.5,38.5c-8.8,12.9-20.2,14.6-19.3,19.3c1.2,6.2,23,12.2,38.5,2.8
		c12-7.3,14.5-21.7,16.5-33c3.7-20.2-0.9-37.9-5.5-49.5c-6-0.4-16.5-1.9-27.5-8.3c-13.5-7.9-15.8-17.5-27.5-33
		c-6.1-8-23.1-30.1-49.5-41.3c-12.5-5.3-37.1-12.4-44-2.8c-4.1,5.7-1.8,16.1,2.8,22c18.7,24.4,92.1-4.4,101.8-8.3
		c3.6-3.1,8.6-8.6,11-16.5c4.4-14.7-2.2-32-16.5-44c-14.3-7.6-25.6-8.6-33-8.3c-20.8,0.9-29.7,13.2-52.3,11
		c-5.8-0.6-15.7-1.5-19.3-8.3c-4-7.6,2-19.1,8.3-24.8c18-16.2,54.6-4.3,55,2.8c0.3,4.7-15.6,9.6-24.8,11
		c-12.4,1.9-22.4-0.9-27.5-2.8"/>
</g>
</svg>
