<?xml version="1.0" encoding="utf-8"?>
<!-- Generator: Adobe Illustrator 21.1.0, SVG Export Plug-In . SVG Version: 6.00 Build 0)  -->
<svg version="1.1" xmlns="http://www.w3.org/2000/svg" xmlns:xlink="http://www.w3.org/1999/xlink" x="0px" y="0px"
	 viewBox="0 0 735 735" style="enable-background:new 0 0 735 735;" xml:space="preserve">
<style type="text/css">
	.st0{display:none;}
	.st1{display:inline;fill:#8CC63F;}
	.st2{display:inline;fill:#FF0000;}
	.st3{display:inline;fill:none;stroke:#000000;stroke-width:6;stroke-miterlimit:10;}
	.st4{fill:#29ABE2;}
	.st5{fill:none;stroke:#000000;stroke-width:6;stroke-miterlimit:10;}
</style>
<g id="Слой_1" class="st0">
	
		<rect x="182.6" y="507.8" transform="matrix(0.9491 -0.315 0.315 0.9491 -156.0896 138.3714)" class="st1" width="334.9" height="88.7"/>
	<circle class="st2" cx="467.4" cy="189" r="101.6"/>
	<path class="st3" d="M560.1,224.6c-0.5,5.3-2.4,8.8-3.6,10.7c-3.8,5.9-9.5,8.5-14.3,10.7c-3.6,1.6-4.1,1.3-10.7,3.6
		c-2.5,0.8-10.1,3.4-17.8,7.1c-4.2,2-10.8,5.2-17.8,10.7c-6.1,4.7-8,7.6-17.8,17.8c-8.9,9.3-12.7,9.2-14.3,14.3
		c-2.5,8.1,2.5,16.1,3.6,17.8c6.4,10.2,18.9,14.5,28.5,14.3c8.5-0.2,8.3-3.7,17.8-3.6c7.9,0.1,31.4,3.9,35.7,3.6
		c11-0.8,13.4-2.7,14.3-3.6c3.9-3.8,3.6-9.6,3.6-10.7c-0.4-8.6-14.3-17.8-14.3-17.8c-15-10-26.3-19.7-35.7-25
		c-17.9-10-27.2-15.1-39.2-14.3c-12.1,0.8-20.5,6.8-35.7,17.8c-18.4,13.4-21.5,20.1-32.1,28.5c-21.8,17.3-46.9,19.2-74.9,21.4
		c-40.6,3.2-74.9,0-74.9,0c-8.6-0.8-19.9-2.1-32.1,3.6c-15.1,7.1-22.7,20.8-25,25c-2.2,4.1-6.8,12.9-7.1,25
		c-0.2,8,2.2,14.9,7.1,28.5c5.9,16.4,47.9,38.2,64.2,46.4c21.9,11,22.2,9.7,28.5,14.3c14.8,10.6,20.3,22.6,21.4,25
		c3.5,7.7,6.6,19.7,3.6,21.4c-3.9,2.2-17.2-13.6-25-25c-6.2-9.2-18.7-27.5-21.4-53.5c-1.8-16.7,2.4-18.5,0-42.8
		c-1.7-17.2-4.7-25.5-10.7-32.1c-1.9-2.2-8.1-8.8-17.8-10.7c-14.9-3-27.6,7.1-32.1,10.7c-15.7,12.5-20.2,29.9-28.5,64.2
		c-17.6,72.6-20.4,84.7-17.8,85.6c3.4,1.2,8.9-19.9,28.5-42.8c22.4-26.1,48.8-37.7,60.6-42.8c14.5-6.2,56.5-21.9,107-10.7
		c21.4,4.7,48,10.6,60.6,32.1c15.6,26.6-0.3,59.6,3.6,60.6c5,1.4,22.1-54.7,32.1-92.7c2.8-10.6,8.5-33.3,3.6-60.6
		c-4.1-22.7-11.6-27.2-14.3-28.5c-11.7-5.7-26.2,3.4-32.1,7.1c-5.6,3.5-21.4,13.4-21.4,28.5c0,9.5,6.2,16.4,10.7,21.4
		c2.5,2.8,13.9,15,39.2,21.4c26.8,6.8,39.7-0.4,49.9,10.7c5.8,6.3,6.7,14.1,7.1,17.8c2.6,22.1-15.9,37.7-17.8,39.2"/>
</g>
<g id="Слой_2">
	<circle class="st4" cx="516.1" cy="258" r="112"/>
	<path class="st5" d="M474.3,321.8c8.4,0.2,20-1,29.1-8.6c7.2-6,6.4-10.6,12.6-13.7c11.6-5.8,20.3,7.4,38.1,5.4
		c13.7-1.5,25.7-11.3,30-22.1c0.9-2.4,4.1-10.2,0.5-15.1c-3.5-4.8-10.7-2.8-21.5-5.3c-8.8-2.1-15.9-6.2-21.3-10.3
		c-3.4,0.1-52.1,1.7-72,37.8c-2.1,3.9-14.9,27.1-5.3,49.8c1.9,4.4,6.7,15.8,17.5,19.8c19,7.1,32-3.6,32.7,3.7
		c0.8,8.7,1.9,32.6-2.8,35.7c-4.7,3.1-35.2,5.3-39,3.2c-3.2-1.8-6.2-6.9-4.8-21.9c-18.9,10.4-42.7,5-55.1-12
		c-16.6-22.8-3.4-53.7,3.9-54.3c8.5-0.8,27.2,37.2,17.2,69.7c-6.9,22.4-25.3,33-48.6,49.2c-17.3,12-59,40.9-80.6,25.4
		c-18.8-13.5-20.9-59.6,1.6-73.6c11.6-7.2,29.9-5.9,39.2,3.4c13.2,13.2,8.6,42.9-2.6,58.9c-2.8,4-5.6,6.6-6.5,11.9
		c-2.2,12.7,10.4,18,10.5,30.1c0.3,17.2-24.5,29.9-27.3,31.3c-13.7,7-26.8,6.9-33,6.4c-2.4-4.3,6.8-20.6,9.8-34.5
		c1.8-8.4,0.7-21.1-5.2-23.4c-8.2-3.2-23,14.3-30.2,27.2c-4.9,8.8-26.2,49.5-44.1,64.5c-12.8,10.7-45.4,34.5-55.4,26.3
		c-9.9-8.1,5.5-44,19-65.4c16.7-26.7,38.1-42.9,52.8-52.1c-1-5.3-2-13.2-1.7-22.8c1.7-52,41.5-86.9,50.2-94.6
		c30.4-26.6,63.8-34.4,80.5-37c3-1.9,7.4-4.8,12.4-8.6c13.4-10.3,13.7-13.5,21.3-17.9c11.7-6.7,16.2-1.9,27.5-8.1
		c9.9-5.5,13-12.8,17.8-18.5c7.8-9.3,23.7-18.7,59.6-17.6"/>
</g>
</svg>
